<?xml version="1.0" encoding="utf-8"?>
<!-- Generator: Adobe Illustrator 25.2.1, SVG Export Plug-In . SVG Version: 6.00 Build 0)  -->
<svg version="1.1" id="Layer_1" xmlns="http://www.w3.org/2000/svg" xmlns:xlink="http://www.w3.org/1999/xlink" x="0px" y="0px"
	 viewBox="0 0 16 16" style="enable-background:new 0 0 16 16;" xml:space="preserve">
<style type="text/css">
	.st0{fill:none;}
</style>
<rect class="st0" width="16" height="16"/>
<path d="M12.625,6.219L11,4.919V3c0-0.552-0.447-1-1-1S9,2.448,9,3v0.32l-1.375-1.1c-0.365-0.292-0.884-0.292-1.249,0l-5,4
	C0.944,6.564,0.874,7.193,1.219,7.625C1.416,7.871,1.707,7.984,2,7.985V13c0,0.553,0.448,1,1,1h8c0.553,0,1-0.447,1-1V8
	c0.293,0,0.583-0.128,0.781-0.375C13.126,7.193,13.056,6.564,12.625,6.219z M8,12v-2c0-0.553-0.448-1-1-1s-1,0.447-1,1v2H4V6.68
	l3-2.4l3,2.4V12H8z"/>
</svg>
