<?xml version="1.0" encoding="utf-8"?>
<!-- Generator: Adobe Illustrator 25.2.1, SVG Export Plug-In . SVG Version: 6.00 Build 0)  -->
<svg version="1.1" id="Layer_1" xmlns="http://www.w3.org/2000/svg" xmlns:xlink="http://www.w3.org/1999/xlink" x="0px" y="0px"
	 viewBox="0 0 24 24" style="enable-background:new 0 0 24 24;" xml:space="preserve">
<style type="text/css">
	.st0{fill:#333333;}
	.st1{fill:none;}
</style>
<path class="st0" d="M19,5H5C3.346,5,2,6.346,2,8v8c0,1.654,1.346,3,3,3h14c1.654,0,3-1.346,3-3V8C22,6.346,20.654,5,19,5z M4,16
	V8.371l4.176,3.915l-4.152,3.831C4.019,16.077,4,16.041,4,16z M12,13.129L5.462,7h13.076L12,13.129z M9.639,13.657l1.677,1.572
	C11.508,15.41,11.754,15.5,12,15.5s0.492-0.09,0.684-0.271l1.677-1.572L17.984,17H6.017L9.639,13.657z M15.824,12.286L20,8.37V16
	c0,0.042-0.019,0.077-0.024,0.117L15.824,12.286z"/>
<rect y="0" class="st1" width="24" height="24"/>
</svg>
