<?xml version="1.0" encoding="utf-8"?>
<!-- Generator: Adobe Illustrator 25.2.1, SVG Export Plug-In . SVG Version: 6.00 Build 0)  -->
<svg version="1.1" id="Layer_1" xmlns="http://www.w3.org/2000/svg" xmlns:xlink="http://www.w3.org/1999/xlink" x="0px" y="0px"
	 viewBox="0 0 24 24" style="enable-background:new 0 0 24 24;" xml:space="preserve">
<style type="text/css">
	.st0{fill:#FFFFFF;fill-opacity:0.01;}
</style>
<rect y="0" class="st0" width="24" height="24"/>
<path d="M17.099,13.356c-0.926-0.729-1.806-1.478-2.392-2.063c-0.762-0.762-1.44-1.5-2.03-2.203C13.597,6.247,14,4.781,14,4
	c0-3.319-1.199-4-3-4C9.632,0,8,0.711,8,4.096C8,5.588,8.817,7.4,10.438,9.505c-0.396,1.21-0.862,2.605-1.386,4.179
	c-0.252,0.755-0.525,1.454-0.815,2.101c-0.235,0.105-0.464,0.211-0.685,0.321c-0.795,0.397-1.55,0.755-2.25,1.087
	C2.109,18.704,0,19.704,0,21.679C0,23.112,1.558,24,3,24c1.859,0,4.667-2.483,6.718-6.667c2.129-0.84,4.775-1.462,6.864-1.852
	C18.256,16.769,20.104,18,21,18c2.479,0,3-1.434,3-2.636C24,13,21.299,13,20,13C19.597,13,18.515,13.119,17.099,13.356z M3,22
	c-0.571,0-0.958-0.27-1-0.321c0-0.709,2.114-1.711,4.159-2.68c0.13-0.062,0.262-0.123,0.396-0.187C5.053,20.99,3.567,22,3,22z
	 M10,4.096C10,2,10.65,2,11,2c0.707,0,1,0,1,2c0,0.422-0.281,1.477-0.796,3.123C10.419,5.914,10,4.878,10,4.096z M10.767,14.844
	c0.063-0.174,0.123-0.35,0.182-0.527c0.371-1.113,0.705-2.113,1.003-3.014c0.415,0.457,0.862,0.925,1.342,1.404
	c0.188,0.188,0.652,0.609,1.272,1.138C13.332,14.113,12.021,14.446,10.767,14.844z M22,15.364c0,0.449,0,0.636-0.928,0.642
	c-0.272-0.059-0.902-0.43-1.68-0.959C19.675,15.016,19.883,15,20,15C21.478,15,21.897,15.145,22,15.364z"/>
</svg>
