<?xml version="1.0" encoding="utf-8"?>
<!-- Generator: Adobe Illustrator 25.2.1, SVG Export Plug-In . SVG Version: 6.00 Build 0)  -->
<svg version="1.1" id="Layer_1" xmlns="http://www.w3.org/2000/svg" xmlns:xlink="http://www.w3.org/1999/xlink" x="0px" y="0px"
	 viewBox="0 0 24 24" style="enable-background:new 0 0 24 24;" xml:space="preserve">
<style type="text/css">
	.st0{fill:#FFFFFF;fill-opacity:0.01;}
	.st1{fill:#333333;}
</style>
<rect class="st0" width="24" height="24"/>
<g>
	<path class="st1" d="M22.101,7.343c-0.325-1.298-1-2.486-1.95-3.436c-0.95-0.951-2.139-1.625-3.437-1.95
		c-0.954-0.239-1.934-0.288-2.91-0.143c-0.546,0.082-0.923,0.59-0.842,1.136c0.082,0.547,0.593,0.926,1.137,0.842
		c0.716-0.106,1.432-0.071,2.129,0.104c0.947,0.237,1.814,0.729,2.509,1.424c0.694,0.694,1.187,1.562,1.425,2.508
		c0.175,0.699,0.209,1.416,0.104,2.13c-0.081,0.546,0.297,1.055,0.843,1.136c0.05,0.007,0.099,0.011,0.147,0.011
		c0.487,0,0.915-0.357,0.988-0.854C22.388,9.278,22.34,8.299,22.101,7.343z"/>
	<path class="st1" d="M17.358,10.699c0.05,0.007,0.099,0.011,0.147,0.011c0.487,0,0.915-0.357,0.988-0.854
		c0.184-1.238-0.234-2.505-1.118-3.389c-0.884-0.884-2.146-1.303-3.39-1.118c-0.546,0.082-0.923,0.59-0.842,1.137
		c0.082,0.546,0.592,0.923,1.137,0.842c0.622-0.094,1.236,0.108,1.681,0.553s0.646,1.058,0.554,1.682
		C16.435,10.11,16.812,10.618,17.358,10.699z"/>
	<path class="st1" d="M19.454,14.292l-2.184-1.214c-0.576-0.321-1.271-0.334-1.854-0.04l-1.989,0.995
		c-0.489-0.153-1.483-0.545-2.325-1.388c-0.844-0.844-1.239-1.843-1.393-2.331l0.995-1.989c0.293-0.587,0.279-1.281-0.04-1.854
		L9.456,4.295C9.105,3.664,8.439,3.272,7.717,3.272H5.211c-0.943,0-1.828,0.448-2.366,1.198C2.318,5.205,2.183,6.122,2.474,6.986
		c0.941,2.79,2.593,6.645,5.118,9.169c2.524,2.524,6.38,4.176,9.169,5.117c0.3,0.102,0.606,0.151,0.908,0.151
		c0.57,0,1.129-0.178,1.608-0.521c0.75-0.539,1.198-1.424,1.198-2.366v-2.507C20.476,15.31,20.084,14.644,19.454,14.292z
		 M18.476,18.536c0,0.305-0.133,0.575-0.364,0.741c-0.121,0.086-0.37,0.215-0.711,0.101c-2.118-0.715-6.025-2.268-8.395-4.637
		S5.084,8.465,4.369,6.347c-0.114-0.337,0.014-0.59,0.101-0.71c0.167-0.231,0.437-0.364,0.742-0.364H7.71l1.204,2.159L7.75,9.759
		c-0.099,0.197-0.129,0.422-0.087,0.638c0.016,0.083,0.414,2.053,2.024,3.662c1.61,1.61,3.576,2.003,3.659,2.02
		c0.218,0.041,0.439,0.01,0.636-0.088l2.316-1.165l2.177,1.203V18.536z"/>
</g>
</svg>
