<?xml version="1.0" encoding="utf-8"?>
<!-- Generator: Adobe Illustrator 25.2.1, SVG Export Plug-In . SVG Version: 6.00 Build 0)  -->
<svg version="1.1" id="Layer_1" xmlns="http://www.w3.org/2000/svg" xmlns:xlink="http://www.w3.org/1999/xlink" x="0px" y="0px"
	 viewBox="0 0 24 24" style="enable-background:new 0 0 24 24;" xml:space="preserve">
<style type="text/css">
	.st0{fill:#FFFFFF;fill-opacity:0.01;}
	.st1{fill:#333333;}
</style>
<rect class="st0" width="24" height="24"/>
<g>
	<path class="st1" d="M12,1C7.313,1,3.5,4.813,3.5,9.5c0,6.901,7.554,13.023,7.875,13.281C11.558,22.927,11.779,23,12,23
		s0.442-0.073,0.625-0.219C12.946,22.523,20.5,16.401,20.5,9.5C20.5,4.813,16.687,1,12,1z M12,20.679
		C10.262,19.112,5.5,14.377,5.5,9.5C5.5,5.916,8.416,3,12,3s6.5,2.916,6.5,6.5C18.5,14.377,13.738,19.112,12,20.679z"/>
	<path class="st1" d="M12,5.5c-2.206,0-4,1.794-4,4s1.794,4,4,4c2.206,0,4-1.794,4-4S14.206,5.5,12,5.5z M12,11.5
		c-1.103,0-2-0.897-2-2s0.897-2,2-2c1.103,0,2,0.897,2,2S13.103,11.5,12,11.5z"/>
</g>
</svg>
