<?xml version="1.0" encoding="utf-8"?>
<!-- Generator: Adobe Illustrator 25.2.1, SVG Export Plug-In . SVG Version: 6.00 Build 0)  -->
<svg version="1.1" id="Layer_1" xmlns="http://www.w3.org/2000/svg" xmlns:xlink="http://www.w3.org/1999/xlink" x="0px" y="0px"
	 viewBox="0 0 24 24" style="enable-background:new 0 0 24 24;" xml:space="preserve">
<style type="text/css">
	.st0{fill:#FFFFFF;fill-opacity:0.01;}
	.st1{fill:#333333;}
</style>
<rect class="st0" width="24" height="24"/>
<g>
	<path class="st1" d="M10.5,5C9.165,5,7.909,5.52,6.964,6.464c-0.391,0.391-0.391,1.024,0,1.415c0.391,0.391,1.024,0.39,1.415,0
		c1.134-1.134,3.11-1.133,4.243,0c0.195,0.195,0.451,0.293,0.707,0.293s0.512-0.098,0.707-0.293c0.391-0.391,0.391-1.023,0-1.414
		C13.091,5.52,11.835,5,10.5,5z"/>
	<path class="st1" d="M21.561,20.146l-3.679-3.679C19.204,14.835,20,12.76,20,10.5C20,5.262,15.738,1,10.5,1S1,5.262,1,10.5
		S5.262,20,10.5,20c2.26,0,4.335-0.796,5.968-2.118l3.679,3.679c0.195,0.195,0.451,0.293,0.707,0.293s0.512-0.098,0.707-0.293
		C21.951,21.17,21.951,20.537,21.561,20.146z M3,10.5C3,6.364,6.364,3,10.5,3S18,6.364,18,10.5S14.636,18,10.5,18S3,14.636,3,10.5z"
		/>
</g>
</svg>
