<?xml version="1.0" encoding="utf-8"?>
<!-- Generator: Adobe Illustrator 25.2.1, SVG Export Plug-In . SVG Version: 6.00 Build 0)  -->
<svg version="1.1" xmlns="http://www.w3.org/2000/svg" xmlns:xlink="http://www.w3.org/1999/xlink" x="0px" y="0px"
	 viewBox="0 0 60 60" style="enable-background:new 0 0 60 60;" xml:space="preserve">
<style type="text/css">
	.st0{fill:none;}
</style>
<g id="Layer_2">
</g>
<g id="Layer_3">
	<g>
		<rect x="0" y="0" class="st0" width="60" height="60"/>
	</g>
	<g>
		<path d="M25.293,21.293l-3,3c-0.391,0.391-0.391,1.023,0,1.414l6,6C28.488,31.902,28.744,32,29,32s0.512-0.098,0.707-0.293l8-8
			c0.391-0.391,0.391-1.023,0-1.414l-3-3c-0.391-0.391-1.023-0.391-1.414,0L29,23.586l-2.293-2.293
			C26.316,20.902,25.684,20.902,25.293,21.293z M29.707,25.707L34,21.414L35.586,23L29,29.586L24.414,25L26,23.414l2.293,2.293
			C28.684,26.098,29.316,26.098,29.707,25.707z"/>
		<path d="M50.248,51.082l-6.617-11.474c1.162-0.916,1.978-2.252,2.186-3.787c0.137-1.01,0.657-1.909,1.462-2.533
			c2.067-1.6,2.819-4.407,1.829-6.826c-0.386-0.943-0.386-1.982,0-2.925c0.99-2.419,0.238-5.226-1.829-6.826
			c-0.806-0.624-1.325-1.523-1.462-2.533c-0.352-2.59-2.407-4.645-4.997-4.997c-1.01-0.137-1.909-0.656-2.533-1.462
			c-1.096-1.417-2.825-2.262-4.622-2.262c-0.76,0-1.501,0.146-2.203,0.433C30.992,6.083,30.5,6.181,30,6.181
			s-0.992-0.098-1.463-0.29c-0.702-0.287-1.444-0.433-2.203-0.433c-1.798,0-3.526,0.846-4.622,2.262
			c-0.624,0.806-1.523,1.325-2.533,1.462c-2.59,0.352-4.645,2.407-4.997,4.997c-0.137,1.01-0.657,1.909-1.462,2.533
			c-2.067,1.6-2.819,4.407-1.829,6.826c0.386,0.943,0.386,1.982,0,2.925c-0.99,2.419-0.238,5.226,1.829,6.826
			c0.806,0.624,1.325,1.523,1.462,2.533c0.209,1.535,1.025,2.871,2.187,3.787L9.752,51.082c-0.202,0.351-0.173,0.788,0.073,1.109
			c0.246,0.32,0.662,0.462,1.052,0.356l5.864-1.574l1.574,5.863c0.105,0.391,0.435,0.679,0.836,0.731
			c0.043,0.006,0.087,0.009,0.13,0.009c0.354,0,0.686-0.188,0.866-0.5l7.291-12.642c0.375-0.072,0.742-0.18,1.1-0.326
			c0.471-0.193,0.963-0.29,1.462-0.29c0.5,0,0.992,0.098,1.462,0.29c0.357,0.146,0.725,0.254,1.099,0.326l7.291,12.642
			c0.18,0.312,0.512,0.5,0.866,0.5c0.043,0,0.086-0.003,0.13-0.009c0.401-0.053,0.731-0.341,0.836-0.731l1.574-5.863l5.863,1.574
			c0.392,0.105,0.807-0.037,1.053-0.356C50.421,51.87,50.45,51.433,50.248,51.082z M19.621,53.986l-1.208-4.498
			c-0.069-0.256-0.236-0.474-0.466-0.606c-0.23-0.134-0.503-0.168-0.759-0.1L12.69,49.99l5.436-9.426
			c0.339,0.113,0.689,0.204,1.052,0.253c1.01,0.137,1.909,0.657,2.533,1.462c0.851,1.099,2.082,1.848,3.431,2.131L19.621,53.986z
			 M30,41.819c-0.752,0-1.504,0.146-2.22,0.439h0c-0.469,0.192-0.96,0.284-1.446,0.284c-1.163,0-2.299-0.528-3.041-1.486
			c-0.947-1.223-2.312-2.012-3.845-2.22c-1.702-0.231-3.053-1.582-3.285-3.285c-0.208-1.533-0.997-2.898-2.22-3.845
			c-1.359-1.052-1.853-2.897-1.202-4.487c0.586-1.432,0.586-3.008,0-4.44c-0.651-1.59-0.156-3.435,1.202-4.487
			c1.223-0.947,2.012-2.312,2.22-3.845c0.232-1.702,1.582-3.053,3.285-3.285c1.533-0.208,2.898-0.997,3.845-2.22
			c0.742-0.958,1.878-1.487,3.041-1.487c0.486,0,0.977,0.092,1.446,0.284c0.716,0.293,1.468,0.439,2.22,0.439
			s1.504-0.146,2.22-0.439c0.469-0.192,0.96-0.284,1.446-0.284c1.163,0,2.299,0.528,3.041,1.486c0.947,1.223,2.312,2.012,3.845,2.22
			c1.702,0.232,3.053,1.582,3.285,3.285c0.208,1.533,0.997,2.898,2.22,3.845c1.359,1.052,1.853,2.897,1.202,4.487
			c-0.586,1.432-0.586,3.008,0,4.44c0.651,1.59,0.156,3.435-1.202,4.487c-1.223,0.947-2.011,2.312-2.22,3.845
			c-0.232,1.703-1.582,3.053-3.285,3.285c-1.533,0.208-2.898,0.997-3.845,2.22c-0.742,0.958-1.878,1.486-3.041,1.486
			c-0.486,0-0.977-0.092-1.446-0.284C31.504,41.965,30.752,41.819,30,41.819z M42.812,48.782c-0.533-0.142-1.082,0.173-1.226,0.706
			l-1.208,4.498l-5.522-9.574c1.348-0.284,2.58-1.033,3.431-2.132c0.624-0.806,1.523-1.325,2.533-1.462
			c0.364-0.049,0.713-0.14,1.053-0.254l5.436,9.426L42.812,48.782z"/>
		<circle cx="30" cy="13" r="1"/>
		<path d="M43,25c0-5.489-3.482-10.41-8.666-12.246c-0.522-0.185-1.092,0.089-1.276,0.609c-0.185,0.521,0.088,1.092,0.608,1.277
			C38.053,16.193,41,20.357,41,25c0,6.065-4.935,11-11,11s-11-4.935-11-11c0-4.643,2.947-8.807,7.334-10.36
			c0.521-0.185,0.793-0.756,0.609-1.277c-0.185-0.521-0.759-0.794-1.277-0.609C20.483,14.59,17,19.511,17,25c0,7.168,5.832,13,13,13
			C37.168,38,43,32.168,43,25z"/>
	</g>
</g>
</svg>
