<?xml version="1.0" encoding="utf-8"?>
<!-- Generator: Adobe Illustrator 25.2.1, SVG Export Plug-In . SVG Version: 6.00 Build 0)  -->
<svg version="1.1" xmlns="http://www.w3.org/2000/svg" xmlns:xlink="http://www.w3.org/1999/xlink" x="0px" y="0px"
	 viewBox="0 0 60 60" style="enable-background:new 0 0 60 60;" xml:space="preserve">
<style type="text/css">
	.st0{fill:none;}
</style>
<g id="Layer_2">
	<g>
		<path d="M56,36.021c0-0.019-0.01-0.034-0.011-0.053c-0.027-0.865-0.269-1.709-0.721-2.448l-0.952-1.562
			c-0.096-0.156-0.146-0.336-0.146-0.52V29c0-0.552-0.447-1-1-1h-4.148c-0.553,0-1,0.448-1,1v2.389c0,0.2-0.059,0.394-0.171,0.56
			l-0.997,1.479C46.295,34.257,46,35.223,46,36.222V44h-2v-7.876c0-0.92-0.253-1.82-0.731-2.604l-0.952-1.562
			c-0.096-0.156-0.146-0.336-0.146-0.52V29c0-0.552-0.447-1-1-1h-4.148c-0.553,0-1,0.448-1,1v2.389c0,0.2-0.059,0.394-0.171,0.56
			l-0.997,1.479C34.295,34.257,34,35.223,34,36.222V44h-6.101c-0.465-2.279-2.484-4-4.899-4h-1v-6c0-0.553-0.448-1-1-1s-1,0.447-1,1
			v6h-8V17.46c1.063,0.954,2.462,1.54,4,1.54c1.223,0,2.36-0.369,3.31-1H20v8c0,0.552,0.448,1,1,1s1-0.448,1-1v-8h12.586L38,21.414
			v4.395c0,0.552,0.447,1,1,1s1-0.448,1-1v-4.395l3.707-3.707C43.895,17.52,44,17.265,44,17V9c0-0.552-0.447-1-1-1h-8H19.31
			C18.36,7.369,17.223,7,16,7c-3.309,0-6,2.691-6,6c0,0.109,0.011,0.216,0.016,0.323C10.014,13.351,10,13.376,10,13.404V40H9
			c-2.757,0-5,2.243-5,5v6c0,0.553,0.448,1,1,1h22h28c0.553,0,1-0.447,1-1v-6v-8.876c0-0.026-0.005-0.051-0.005-0.076
			C55.995,36.038,56,36.031,56,36.021z M22,13c0-1.093-0.299-2.116-0.812-3H34v6H22V13z M42,16.586l-2.902,2.902
			c-0.034-0.003-0.063-0.02-0.098-0.02s-0.064,0.016-0.098,0.02L36,16.586V10h6V16.586z M16,9c2.206,0,4,1.794,4,4s-1.794,4-4,4
			s-4-1.794-4-4S13.794,9,16,9z M49.509,33.066c0.335-0.498,0.513-1.078,0.513-1.678V30h2.148v1.438
			c0,0.551,0.152,1.091,0.439,1.562l0.952,1.562c0.088,0.144,0.138,0.304,0.2,0.459h-1.047c-0.188,0-0.369-0.077-0.499-0.209
			C51.712,34.296,51.008,34,50.285,34h-1.406L49.509,33.066z M48,36.222c0-0.075,0.011-0.148,0.016-0.222h2.269
			c0.188,0,0.369,0.076,0.5,0.21c0.505,0.516,1.208,0.812,1.93,0.812H54V44h-6V36.222z M36,36.222c0-0.6,0.177-1.18,0.512-1.677
			l0.997-1.479c0.335-0.498,0.513-1.078,0.513-1.678V30h2.148v1.438c0,0.551,0.152,1.091,0.439,1.562l0.952,1.562
			c0.287,0.47,0.438,1.01,0.438,1.562V44h-6V36.222z M6,45c0-1.654,1.346-3,3-3h14c1.654,0,3,1.346,3,3v5H6V45z M54,50H28v-4h7h8h4
			h7V50z"/>
		<circle cx="9" cy="46" r="1"/>
		<circle cx="23" cy="46" r="1"/>
		<circle cx="16" cy="13" r="1"/>
		<circle cx="21" cy="30" r="1"/>
		<circle cx="39" cy="13" r="1"/>
		<path d="M19,45h-6c-0.552,0-1,0.447-1,1s0.448,1,1,1h6c0.552,0,1-0.447,1-1S19.552,45,19,45z"/>
	</g>
</g>
<g id="Layer_3">
	<g>
		<rect x="0" y="0" class="st0" width="60" height="60"/>
	</g>
</g>
</svg>
