<?xml version="1.0" encoding="utf-8"?>
<!-- Generator: Adobe Illustrator 25.2.1, SVG Export Plug-In . SVG Version: 6.00 Build 0)  -->
<svg version="1.1" xmlns="http://www.w3.org/2000/svg" xmlns:xlink="http://www.w3.org/1999/xlink" x="0px" y="0px"
	 viewBox="0 0 60 60" style="enable-background:new 0 0 60 60;" xml:space="preserve">
<style type="text/css">
	.st0{fill:none;}
</style>
<g id="Layer_2">
	<g>
		<path d="M35,27c0-2.757-2.243-5-5-5s-5,2.243-5,5s2.243,5,5,5S35,29.757,35,27z M30,30c-1.654,0-3-1.346-3-3s1.346-3,3-3
			s3,1.346,3,3S31.654,30,30,30z"/>
		<circle cx="43" cy="29" r="1"/>
		<path d="M7,28H5c-0.552,0-1,0.448-1,1s0.448,1,1,1h2c0.552,0,1-0.448,1-1S7.552,28,7,28z"/>
		<path d="M55,28h-2c-0.553,0-1,0.448-1,1s0.447,1,1,1h2c0.553,0,1-0.448,1-1S55.553,28,55,28z"/>
		<path d="M30,7c0.552,0,1-0.448,1-1V4c0-0.552-0.448-1-1-1s-1,0.448-1,1v2C29,6.552,29.448,7,30,7z"/>
		<path d="M13.029,13.443c0.195,0.195,0.451,0.293,0.707,0.293s0.512-0.098,0.707-0.293c0.391-0.391,0.391-1.023,0-1.414
			l-1.414-1.414c-0.391-0.391-1.023-0.391-1.414,0s-0.391,1.023,0,1.414L13.029,13.443z"/>
		<path d="M46.264,13.736c0.256,0,0.512-0.098,0.707-0.293l1.414-1.414c0.391-0.391,0.391-1.023,0-1.414s-1.023-0.391-1.414,0
			l-1.414,1.414c-0.391,0.391-0.391,1.023,0,1.414C45.752,13.639,46.008,13.736,46.264,13.736z"/>
		<path d="M30,10c-10.477,0-19,8.523-19,19c0,8.154,5.309,15.456,13,18.018v1.261c-0.595,0.347-1,0.985-1,1.722v2
			c0,1.103,0.897,2,2,2h10c1.103,0,2-0.897,2-2v-2c0-0.737-0.405-1.375-1-1.722v-1.261C43.691,44.456,49,37.154,49,29
			C49,18.523,40.477,10,30,10z M25,52v-2h10l0.002,2H25z M34.723,45.32C34.295,45.444,34,45.836,34,46.281V48h-8v-1.719
			c0-0.445-0.294-0.837-0.723-0.961C18.049,43.232,13,36.521,13,29c0-9.374,7.626-17,17-17s17,7.626,17,17
			C47,36.521,41.951,43.232,34.723,45.32z"/>
		<path d="M30,15c-7.72,0-14,6.28-14,14s6.28,14,14,14c6.092,0,11.443-3.896,13.317-9.692c0.17-0.525-0.118-1.089-0.644-1.259
			c-0.527-0.17-1.09,0.119-1.259,0.644c-0.811,2.51-2.385,4.602-4.415,6.059V35c0-1.654-1.346-3-3-3h-4h-4c-1.654,0-3,1.346-3,3
			v3.727c-3.022-2.181-5-5.723-5-9.727c0-6.617,5.383-12,12-12c5.222,0,9.809,3.338,11.415,8.308
			c0.169,0.525,0.731,0.813,1.259,0.644c0.525-0.17,0.813-0.734,0.644-1.259C41.444,18.895,36.092,15,30,15z M25,35
			c0-0.552,0.449-1,1-1h8c0.552,0,1,0.448,1,1v4.906C33.466,40.608,31.772,41,30,41c-1.786,0-3.476-0.403-5-1.105V35z"/>
	</g>
</g>
<g id="Layer_3">
	<g>
		<rect x="0" y="0" class="st0" width="60" height="60"/>
	</g>
</g>
</svg>
