<?xml version="1.0" encoding="utf-8"?>
<!-- Generator: Adobe Illustrator 25.2.1, SVG Export Plug-In . SVG Version: 6.00 Build 0)  -->
<svg version="1.1" xmlns="http://www.w3.org/2000/svg" xmlns:xlink="http://www.w3.org/1999/xlink" x="0px" y="0px"
	 viewBox="0 0 60 60" style="enable-background:new 0 0 60 60;" xml:space="preserve">
<style type="text/css">
	.st0{fill:none;}
</style>
<g id="Layer_2">
	<g>
		<path d="M39,44H5c-0.552,0-1,0.447-1,1v10c0,0.553,0.448,1,1,1h34c0.553,0,1-0.447,1-1V45C40,44.447,39.553,44,39,44z M38,54H6v-8
			h32V54z"/>
		<path d="M9.151,51H19c0.552,0,1-0.447,1-1s-0.448-1-1-1H9.151c-0.552,0-1,0.447-1,1S8.599,51,9.151,51z"/>
		<path d="M24.576,51c0.569,0,1.03-0.448,1.03-1c0-0.552-0.461-1-1.03-1s-1.03,0.448-1.03,1C23.545,50.552,24.007,51,24.576,51z"/>
		<path d="M54.182,6.641c-1.778-1.588-4.42-1.944-6.571-0.886c-1.343,0.659-2.349,1.726-2.91,3.085
			c-0.472,1.145-1.103,2.059-1.863,2.753c-0.356-0.231-0.756-0.393-1.188-0.457c-0.786-0.115-1.583,0.08-2.227,0.557
			c-0.645,0.477-1.064,1.176-1.183,1.969c-0.067,0.449-0.022,0.894,0.108,1.316L24.54,25.205c-1.502,1.113-1.986,3.082-1.304,4.736
			l-2.859,2.276c-0.057,0.045-0.09,0.106-0.135,0.16c-0.019,0.022-0.048,0.03-0.065,0.055C19.646,33.199,17,37.126,17,39
			c0,2.206,1.794,4,4,4s4-1.794,4-4c0-1.508-1.711-4.341-2.657-5.792l2.093-1.666c0.718,0.57,1.598,0.875,2.49,0.875
			c0.827,0,1.662-0.255,2.376-0.784l13.807-10.226c0.366,0.246,0.778,0.419,1.227,0.486c0.15,0.022,0.3,0.033,0.448,0.033
			c0.639,0,1.258-0.203,1.779-0.59c0.645-0.477,1.064-1.176,1.182-1.969c0.065-0.433,0.026-0.864-0.092-1.272
			c0.9-0.541,1.941-0.882,3.065-0.968c1.115-0.086,2.18-0.483,3.077-1.148c1.458-1.079,2.341-2.738,2.424-4.551
			S55.56,7.871,54.182,6.641z M21,41c-1.103,0-2-0.897-2-2c0-0.662,0.933-2.475,2-4.179c1.067,1.704,2,3.517,2,4.179
			C23,40.103,22.103,41,21,41z M28.111,30.026c-0.886,0.657-2.141,0.469-2.797-0.417c-0.657-0.886-0.47-2.141,0.417-2.797
			l13.661-10.119l2.381,3.215L28.111,30.026z M45.373,19.729c-0.214,0.16-0.478,0.229-0.742,0.186
			c-0.265-0.039-0.497-0.179-0.656-0.394l-3.571-4.822c-0.159-0.214-0.225-0.478-0.186-0.742s0.18-0.498,0.395-0.656
			c0.214-0.159,0.471-0.227,0.742-0.186c0.264,0.039,0.496,0.179,0.655,0.394l3.571,4.822c0.159,0.214,0.226,0.478,0.187,0.742
			S45.588,19.57,45.373,19.729z M52.604,14.372c-0.595,0.441-1.3,0.705-2.039,0.761c-1.434,0.109-2.772,0.549-3.938,1.25
			l-2.451-3.309c0.982-0.895,1.786-2.048,2.373-3.47c0.372-0.902,1.044-1.612,1.941-2.053c1.431-0.701,3.182-0.467,4.358,0.583
			c0.94,0.839,1.428,1.977,1.371,3.204C54.166,12.547,53.577,13.653,52.604,14.372z"/>
	</g>
</g>
<g id="Layer_3">
	<g>
		<rect x="0" y="0" class="st0" width="60" height="60"/>
	</g>
</g>
</svg>
